<svg xmlns="http://www.w3.org/2000/svg" xmlns:xlink="http://www.w3.org/1999/xlink">
   <symbol id="cart" viewBox="0 0 17.995 20">
      <path d="M5.3584 11H14.3584C14.9084 11 15.3584 11.45 15.3584 12C15.3584 12.55 14.9084 13 14.3584 13H4.3584C3.8084 13 3.3584 12.55 3.3584 12V2H1.3584C0.808398 2 0.358398 1.55 0.358398 1C0.358398 0.45 0.808398 0 1.3584 0H4.3584C4.9084 0 5.3584 0.45 5.3584 1V3H18.3584L14.3584 10H5.3584V11ZM4.8584 14C5.6884 14 6.3584 14.67 6.3584 15.5C6.3584 16.33 5.6884 17 4.8584 17C4.0284 17 3.3584 16.33 3.3584 15.5C3.3584 14.67 4.0284 14 4.8584 14ZM13.8584 14C14.6884 14 15.3584 14.67 15.3584 15.5C15.3584 16.33 14.6884 17 13.8584 17C13.0284 17 12.3584 16.33 12.3584 15.5C12.3584 14.67 13.0284 14 13.8584 14Z" />
   </symbol>
</svg>