<svg width="100" height="151" viewBox="0 0 100 151" fill="none" xmlns="http://www.w3.org/2000/svg">
<path d="M16.4021 140.672L33.1922 151L50.0176 140.672L66.8078 151L83.5979 140.672L100 151V0H0V151L16.4021 140.672Z" fill="white"/>
<path d="M90.3017 128.409H12.3828V129.888H90.3017V128.409Z" fill="black"/>
<path d="M33.3352 21.2427H12.3828V22.7223H33.3352V21.2427Z" fill="black"/>
<path d="M87.6203 21.2427H66.668V22.7223H87.6203V21.2427Z" fill="black"/>
<path d="M43.244 17.6495C42.8913 18.3188 42.5386 19.0586 42.1858 19.9041C41.8331 20.7496 41.4804 21.5951 41.1276 22.511C40.7749 23.427 40.4222 24.2724 40.0342 25.0475C39.7574 25.6846 39.389 26.278 38.9407 26.8089C38.5782 27.2611 38.1358 27.6431 37.6356 27.9362C37.2082 28.1984 36.7246 28.3554 36.2246 28.3942C35.7788 28.4291 35.3313 28.3505 34.9241 28.1656C34.517 27.9808 34.1634 27.6958 33.8966 27.3373C33.6904 27.0275 33.5466 26.6805 33.4733 26.3157C33.4088 25.979 33.3969 25.6344 33.438 25.2941C33.4641 25.0294 33.5233 24.769 33.6144 24.519C33.7202 24.3429 33.7908 24.2372 33.9319 24.202C34.0377 24.202 34.1435 24.3077 34.214 24.5895C34.2679 24.857 34.4186 25.0953 34.6373 25.2588C34.8256 25.4059 35.0415 25.5137 35.2722 25.5759C35.5179 25.6111 35.7673 25.6111 36.013 25.5759C36.2718 25.5004 36.5205 25.3939 36.7537 25.2588C36.957 25.1258 37.1461 24.9724 37.3181 24.8009C37.5116 24.6043 37.6885 24.3922 37.8472 24.1668C38.0316 23.9464 38.1968 23.7107 38.341 23.4622C38.4821 23.2156 38.6232 22.969 38.7643 22.7576C39.0112 22.2996 39.2934 21.7712 39.5756 21.2076C39.8578 20.6439 40.14 20.0802 40.4222 19.4813C40.6993 18.9027 41.0053 18.3383 41.3393 17.7904C41.623 17.2683 41.9535 16.7731 42.3269 16.3108C41.6696 16.3574 41.0102 16.3692 40.3516 16.346C39.7262 16.3354 39.102 16.2884 38.4821 16.2051C37.8825 16.1346 37.3534 16.0289 36.8243 15.9232C36.3624 15.8353 35.9126 15.6934 35.4839 15.5005C35.0949 15.3457 34.754 15.0903 34.4962 14.7607C34.2616 14.4607 34.0715 14.1285 33.9319 13.7743C33.8082 13.4604 33.7483 13.1251 33.7555 12.7879C33.7485 12.5255 33.7842 12.2638 33.8613 12.0129C33.9319 11.8015 34.0377 11.6606 34.1788 11.6253C34.3199 11.5901 34.4962 11.6606 34.6726 11.872C35.1008 12.2819 35.6208 12.5838 36.1894 12.7527C36.9951 13.0352 37.8203 13.2589 38.6585 13.422C39.6386 13.5956 40.6279 13.7132 41.6215 13.7743C42.6082 13.8513 43.5998 13.8395 44.5844 13.7391C45.0319 13.3922 45.517 13.0968 46.0306 12.8584C46.5331 12.6253 47.0684 12.4708 47.6179 12.4004C48.0263 12.3345 48.4451 12.396 48.8172 12.5765C48.9412 12.6393 49.0498 12.7288 49.1352 12.8384C49.2206 12.948 49.2806 13.0751 49.3111 13.2106C49.3185 13.3741 49.2909 13.5372 49.2301 13.6891C49.1693 13.841 49.0766 13.9782 48.9583 14.0914C48.6173 14.4815 48.1962 14.7939 47.7238 15.0073C47.2263 15.255 46.7067 15.4555 46.1717 15.6062C45.5934 15.7843 45.0043 15.9255 44.4081 16.0289C44.3987 16.0289 44.3897 16.0326 44.3831 16.0393C44.3765 16.0459 44.3728 16.0548 44.3728 16.0642C43.939 16.5493 43.5605 17.081 43.244 17.6495ZM63.9142 21.3132C63.8963 21.5168 63.8231 21.7117 63.7026 21.8769C63.2915 22.4555 62.8312 22.9977 62.3269 23.4974C61.8521 23.9591 61.3322 24.3722 60.7749 24.7304C60.2622 25.0665 59.7039 25.3275 59.117 25.5054C58.5702 25.6846 57.9993 25.7796 57.4239 25.7873C56.859 25.7971 56.3007 25.6638 55.8013 25.3998C55.3627 25.1682 55.0148 24.7959 54.8137 24.3429C54.6739 24.0065 54.5905 23.6495 54.5668 23.286C54.1816 23.7006 53.7692 24.089 53.3322 24.4486C52.8528 24.8237 52.3321 25.1428 51.7802 25.3998C51.286 25.6438 50.7441 25.7761 50.1929 25.7873C49.8351 25.8066 49.4795 25.7209 49.17 25.5407C48.9282 25.3837 48.7333 25.1647 48.6056 24.9066C48.4948 24.6147 48.4585 24.3 48.4998 23.9906C48.5542 23.5932 48.686 23.2102 48.8878 22.8633C49.0924 22.4693 49.3283 22.0923 49.5932 21.736C49.8754 21.3485 50.1223 20.9609 50.334 20.6439C50.5062 20.401 50.6263 20.1251 50.6867 19.8336C50.722 19.6223 50.5809 19.5166 50.2987 19.5166C50.031 19.5427 49.7752 19.64 49.558 19.7984C49.2042 20.0227 48.8836 20.2955 48.6056 20.6087C48.181 21.0504 47.8028 21.5344 47.4768 22.053C47.0536 22.6519 46.6303 23.3917 46.1364 24.2372L46.0659 24.4486C45.8895 24.8009 45.7837 25.0475 45.6779 25.2588C45.5721 25.435 45.5015 25.5759 45.3604 25.6464C45.2367 25.7348 45.0892 25.7839 44.9372 25.7873C44.7608 25.7873 44.5139 25.8225 44.1964 25.8225C43.9959 25.8306 43.795 25.8188 43.5968 25.7873C43.4204 25.752 43.3146 25.6816 43.2793 25.5759C43.2436 25.4986 43.2251 25.4145 43.2251 25.3293C43.2251 25.2442 43.2436 25.16 43.2793 25.0827C43.3841 24.7562 43.5138 24.4382 43.6673 24.1315C43.9848 23.5326 44.4081 22.7928 44.9372 21.8417C45.4663 20.8905 46.0659 19.9041 46.7361 18.8825C47.4063 17.8256 48.0765 16.8392 48.782 15.8528C49.4874 14.8664 50.1223 14.0209 50.722 13.3163C50.9985 12.9826 51.3486 12.7173 51.7449 12.5413C52.0061 12.4083 52.3056 12.3709 52.5915 12.4356C52.8259 12.5011 53.0273 12.6519 53.1558 12.8584C53.2921 13.1056 53.3534 13.3872 53.3322 13.6686C53.2735 14.1483 53.0776 14.6008 52.7678 14.9721C52.3965 15.4208 51.9959 15.8444 51.5685 16.2403C51.11 16.6631 50.6514 17.121 50.1576 17.5438C49.6813 17.9698 49.2764 18.4693 48.9583 19.0234C49.354 18.6851 49.7929 18.4008 50.2634 18.1779C50.6559 17.9741 51.0909 17.8655 51.5333 17.8608C51.7357 17.8368 51.9408 17.8558 52.1353 17.9165C52.3299 17.9772 52.5094 18.0783 52.662 18.2131C52.7757 18.3425 52.8624 18.4933 52.9169 18.6567C52.9714 18.82 52.9927 18.9926 52.9795 19.1643C52.9289 19.6369 52.8101 20.0996 52.6267 20.5382C52.3805 21.1029 52.0854 21.6452 51.7449 22.1587C51.6038 22.3701 51.498 22.5815 51.3569 22.7928C51.2607 22.9825 51.1896 23.1838 51.1453 23.3917C51.1094 23.5304 51.1094 23.6758 51.1453 23.8145C51.1798 23.8756 51.2318 23.925 51.2947 23.9564C51.3575 23.9878 51.4283 23.9997 51.498 23.9906C51.7923 23.9834 52.0814 23.9112 52.3446 23.7792C52.684 23.6312 53.0039 23.4419 53.2969 23.2156C53.966 22.7353 54.5301 22.124 54.9548 21.4189C55.0253 21.3132 55.0959 21.2428 55.1312 21.1723C55.1664 21.1019 55.2017 20.9962 55.237 20.9257C55.4929 20.4365 55.8003 19.9759 56.1541 19.5518C56.5047 19.1244 56.9215 18.7557 57.3886 18.4597C57.815 18.1766 58.2954 17.9847 58.7996 17.8961C59.2996 17.7969 59.8183 17.8586 60.2811 18.0722C60.6139 18.2061 60.9058 18.4247 61.1276 18.7063C61.3203 18.961 61.431 19.2681 61.4451 19.587C61.4392 19.9264 61.3673 20.2614 61.2334 20.5734C61.0499 20.935 60.7984 21.2579 60.4927 21.5246C60.0037 21.941 59.4572 22.2851 58.8701 22.5462C58.2618 22.8144 57.6217 23.0038 56.9654 23.1099C57.0189 23.3873 57.1688 23.6368 57.3886 23.8145C57.5983 23.9695 57.8389 24.0776 58.0941 24.1315C58.4943 24.1942 58.9033 24.1702 59.2934 24.0611C59.7622 23.9468 60.2132 23.769 60.6338 23.5326C61.5428 23.0347 62.3362 22.3503 62.9618 21.5246C63.0886 21.3448 63.2584 21.1995 63.4557 21.1019C63.5755 21.0402 63.7147 21.0276 63.8437 21.0666C63.8888 21.1411 63.9132 21.2262 63.9142 21.3132ZM56.9654 21.8417C57.4529 21.7482 57.9269 21.5944 58.3763 21.3837C58.8898 21.1562 59.3295 20.7902 59.6461 20.3268C59.8931 20.0098 59.9636 19.7279 59.8578 19.5166C59.752 19.3052 59.5403 19.2347 59.2229 19.27C58.8333 19.352 58.4772 19.5483 58.1999 19.8336C57.7281 20.2723 57.3657 20.8152 57.1417 21.4189L56.9654 21.8417Z" fill="black"/>
<path d="M87.6182 57.8809H82.2567L72.7329 40.3018V57.8809H66.6659V31.9174H75.4137L81.4807 44.3883V31.9174H87.6182V57.8809ZM57.4595 90.0799H42.5389C41.7366 90.1166 40.9517 89.8384 40.3519 89.3049C40.0652 89.064 39.8369 88.7614 39.6841 88.4197C39.5314 88.078 39.4582 87.7061 39.4701 87.3321V64.0459H45.6429V84.549H54.3907V64.0459H60.5636V87.3321C60.5755 87.7061 60.5023 88.078 60.3496 88.4197C60.1968 88.7614 59.9685 89.064 59.6817 89.3049C59.0652 89.8336 58.2716 90.1104 57.4595 90.0799ZM33.3325 40.7598V34.7004C33.3376 34.3223 33.2616 33.9474 33.1095 33.601C32.9573 33.2546 32.7327 32.9448 32.4507 32.6924C31.8485 32.1593 31.0684 31.8703 30.2638 31.8822H15.4137C14.6079 31.864 13.8256 32.1538 13.2267 32.6924C12.9503 32.9474 12.7318 33.2586 12.5858 33.6049C12.4398 33.9512 12.3697 34.3248 12.3802 34.7004V55.1331C12.3698 55.5035 12.4401 55.8718 12.5863 56.2124C12.7325 56.5531 12.951 56.8579 13.2267 57.1059C13.8265 57.6394 14.6113 57.9175 15.4137 57.8809H30.2285C31.0308 57.9175 31.8157 57.6394 32.4154 57.1059C32.7022 56.865 32.9305 56.5624 33.0832 56.2206C33.236 55.8789 33.3092 55.5071 33.2973 55.1331V49.1442H27.195V52.4205H18.4472V39.8791L15.0962 37.4835H27.195V40.7598H33.3325ZM59.5759 32.6924C58.9873 32.16 58.2183 31.8704 57.4242 31.8822H42.5742C41.7801 31.8704 41.0111 32.16 40.4225 32.6924C40.1393 32.9285 39.913 33.2253 39.7603 33.5608C39.6076 33.8962 39.5326 34.2616 39.5406 34.63V55.1331C39.5288 55.5071 39.6019 55.8789 39.7547 56.2206C39.9074 56.5624 40.1357 56.865 40.4225 57.1059C41.0149 57.6281 41.7844 57.9052 42.5742 57.8809H57.4595C58.2493 57.9052 59.0187 57.6281 59.6112 57.1059C59.8979 56.865 60.1263 56.5624 60.279 56.2206C60.4317 55.8789 60.5049 55.5071 60.493 55.1331V34.63C60.4792 34.2619 60.3908 33.9004 60.2332 33.5674C60.0756 33.2344 59.852 32.9367 59.5759 32.6924ZM54.3555 52.35H45.6782V39.8791L42.2567 37.4483H54.3555V52.35ZM35.202 92.8278L32.6623 89.0231C33.0973 88.5537 33.337 87.9364 33.3325 87.2969V66.7938C33.337 66.426 33.2604 66.0617 33.108 65.7268C32.9555 65.3919 32.7311 65.0947 32.4507 64.8562C31.8621 64.3238 31.0931 64.0342 30.299 64.0459H15.4137C14.6196 64.0342 13.8506 64.3238 13.262 64.8562C12.9788 65.0923 12.7525 65.3891 12.5998 65.7245C12.4472 66.06 12.3721 66.4254 12.3802 66.7938V87.2969C12.3683 87.6709 12.4414 88.0427 12.5942 88.3844C12.7469 88.7261 12.9752 89.0288 13.262 89.2697C13.8545 89.7919 14.6239 90.069 15.4137 90.0447H26.2073L28.0768 92.863H35.202V92.8278ZM15.0962 69.5768H27.195V84.4786H18.5177V72.0076L15.0962 69.5768ZM30.0521 113.331C30.8589 113.355 31.6435 113.065 32.2391 112.521C32.5266 112.273 32.7549 111.964 32.9075 111.616C33.0601 111.269 33.133 110.892 33.1209 110.513V98.9928C33.1254 98.625 33.0487 98.2607 32.8963 97.9258C32.7439 97.5909 32.5195 97.2937 32.2391 97.0552C31.6368 96.5221 30.8568 96.2331 30.0521 96.245H12.3802V122.208H18.5177V113.331H22.9269L28.8881 122.244H36.0133L30.0521 113.331ZM27.0186 107.8H18.5177V104.242L15.0962 101.811H27.0539V107.8H27.0186ZM59.5759 97.0904C58.9873 96.558 58.2183 96.2684 57.4242 96.2802H42.5742C41.7801 96.2684 41.0111 96.558 40.4225 97.0904C40.1393 97.3266 39.913 97.6234 39.7603 97.9588C39.6076 98.2942 39.5326 98.6597 39.5406 99.028V119.531C39.5288 119.905 39.6019 120.277 39.7547 120.619C39.9074 120.96 40.1357 121.263 40.4225 121.504C41.0149 122.026 41.7844 122.303 42.5742 122.279H57.4595C58.2493 122.303 59.0187 122.026 59.6112 121.504C59.8979 121.263 60.1263 120.96 60.279 120.619C60.4317 120.277 60.5049 119.905 60.493 119.531V99.028C60.4865 98.6586 60.4014 98.2947 60.2432 97.9607C60.0851 97.6266 59.8576 97.33 59.5759 97.0904ZM54.3555 116.713H45.6782V104.242L42.2567 101.811H54.3555V116.713ZM84.3378 113.331C85.1446 113.355 85.9292 113.065 86.5248 112.521C86.806 112.268 87.0301 111.958 87.1821 111.611C87.3342 111.265 87.4107 110.891 87.4066 110.513V98.9928C87.4111 98.625 87.3344 98.2607 87.182 97.9258C87.0296 97.5909 86.8052 97.2937 86.5248 97.0552C85.9225 96.5221 85.1425 96.2331 84.3378 96.245H66.6659V122.208H72.8034V113.331H77.2126L83.1738 122.244H90.299L84.3378 113.331ZM81.3043 107.8H72.8034V104.242L69.3819 101.811H81.3043V107.8ZM87.6182 64.1164H66.6659V90.0799H87.6182V84.6195H72.6623V79.9341H82.4331V74.4736H72.6976V72.0781L69.3819 69.7178H87.6535V64.1164H87.6182Z" fill="black"/>
</svg>
