<svg xmlns="http://www.w3.org/2000/svg" xmlns:xlink="http://www.w3.org/1999/xlink" viewBox="0 0 190 300">
   <defs>
      <linearGradient id="bd85f875-5889-4db3-b93c-c46ad4175e95" x1="276.91" y1="-103.84" x2="-241.59" y2="644.75" gradientUnits="userSpaceOnUse">
         <stop offset="0.01" stop-color="#fccb00"/>
         <stop offset="0.25" stop-color="#fffad2"/>
         <stop offset="0.3" stop-color="#faf1c1"/>
         <stop offset="0.39" stop-color="#edd894"/>
         <stop offset="0.51" stop-color="#d8b14c"/>
         <stop offset="0.6" stop-color="#c9961a"/>
         <stop offset="0.81" stop-color="#e9cd76"/>
         <stop offset="0.87" stop-color="#f2dc8e"/>
         <stop offset="1" stop-color="#fffad2"/>
      </linearGradient>
   </defs>
   <g id="e1bc63ba-e219-4652-8684-49829b0113c8" data-name="Layer 2">
      <polygon points="41.3 278.41 69.1 297.78 96.9 278.41 124.7 297.78 152.5 278.41 179.67 297.78 179.67 14.32 14.13 14.32 14.13 297.78 41.3 278.41" style="fill:url(#bd85f875-5889-4db3-b93c-c46ad4175e95)"/>
      <path d="M114.4,159.13a4.1,4.1,0,0,1-1.48,3.25,5.33,5.33,0,0,1-3.64,1.28H84.55a5.35,5.35,0,0,1-3.65-1.28,4.13,4.13,0,0,1-1.48-3.25V120.51H89.67v34h14.48v-34H114.4Zm-1.62,16.12a4.17,4.17,0,0,1,1.47,3.2v34a4.14,4.14,0,0,1-1.47,3.26,5.27,5.27,0,0,1-3.55,1.28H84.6a5.25,5.25,0,0,1-3.55-1.28,4.12,4.12,0,0,1-1.48-3.26v-34a4.14,4.14,0,0,1,1.48-3.2,5.1,5.1,0,0,1,3.55-1.33h24.63A5.12,5.12,0,0,1,112.78,175.25Zm-8.68,7.83h-20l5.66,4v20.69H104.1Zm30.45-102,15.77,29.16h8.87V67.2H149V87.89L139,67.2H124.5v43.06h10.05Zm24.64-31.59H124.5V52h34.69ZM84.6,110.26A5.25,5.25,0,0,1,81.05,109a4.1,4.1,0,0,1-1.48-3.25v-34a4.16,4.16,0,0,1,1.48-3.2A5.15,5.15,0,0,1,84.6,67.2h24.63a5.17,5.17,0,0,1,3.55,1.33,4.18,4.18,0,0,1,1.47,3.2v34a4.12,4.12,0,0,1-1.47,3.25,5.27,5.27,0,0,1-3.55,1.28Zm-.54-33.9,5.66,4v20.7H104.1V76.36h-20ZM134.65,217H124.5V173.92h29.26a5.25,5.25,0,0,1,3.65,1.33,4.14,4.14,0,0,1,1.48,3.2v19.12a4.26,4.26,0,0,1-1.48,3.3,5.29,5.29,0,0,1-3.65,1.33L163.62,217H151.79l-9.85-14.78h-7.29ZM129,183.08l5.66,4V193h14.09v-9.95H129ZM94.71,40.53A49,49,0,0,1,98,36.35a4.68,4.68,0,0,1,1.68-1.29,2.27,2.27,0,0,1,1.43-.17,1.49,1.49,0,0,1,1,.7,2.18,2.18,0,0,1,.28,1.35,4.1,4.1,0,0,1-1,2.18,20.13,20.13,0,0,1-2,2.12L97,43.43a11.26,11.26,0,0,0-2,2.46,11.71,11.71,0,0,1,2.14-1.38,4.84,4.84,0,0,1,2.1-.51,2.52,2.52,0,0,1,1.86.57,2,2,0,0,1,.5,1.55,6.76,6.76,0,0,1-.6,2.25,17.88,17.88,0,0,1-1.48,2.69A8.75,8.75,0,0,0,99,52.13a4.24,4.24,0,0,0-.38,1,1.09,1.09,0,0,0,0,.7c.08.19.27.28.57.28a3.5,3.5,0,0,0,1.43-.34,8.39,8.39,0,0,0,1.57-.93,10.52,10.52,0,0,0,1.5-1.35,9,9,0,0,0,1.22-1.62,2.89,2.89,0,0,1,.32-.42c.06-.13.13-.27.2-.4a11.37,11.37,0,0,1,1.5-2.26,8.89,8.89,0,0,1,2-1.81,6.61,6.61,0,0,1,2.36-1,4.27,4.27,0,0,1,2.48.27,3.43,3.43,0,0,1,1.41,1.07,2.66,2.66,0,0,1,.52,1.45,3.42,3.42,0,0,1-.37,1.63A4.68,4.68,0,0,1,114.1,50a9.34,9.34,0,0,1-2.67,1.67,12.66,12.66,0,0,1-3.15.91,1.93,1.93,0,0,0,.71,1.16,2.68,2.68,0,0,0,1.15.5,4.64,4.64,0,0,0,2-.12,10.2,10.2,0,0,0,2.2-.9,12.72,12.72,0,0,0,2.12-1.46,11.38,11.38,0,0,0,1.78-1.9,2.26,2.26,0,0,1,.81-.69.71.71,0,0,1,.63,0,.54.54,0,0,1,.24.52,1.77,1.77,0,0,1-.37.93,18.52,18.52,0,0,1-2.28,2.68,15.57,15.57,0,0,1-2.58,2.05,12.12,12.12,0,0,1-2.78,1.31,9,9,0,0,1-2.8.47,5.35,5.35,0,0,1-2.69-.64,4,4,0,0,1-1.62-1.72,4.54,4.54,0,0,1-.41-1.73,16.26,16.26,0,0,1-2.07,1.9,14.47,14.47,0,0,1-2.58,1.57,6.3,6.3,0,0,1-2.62.62,3.28,3.28,0,0,1-1.69-.4,2.35,2.35,0,0,1-1-1,2.92,2.92,0,0,1-.18-1.53,5,5,0,0,1,.62-1.85,14.52,14.52,0,0,1,1.15-1.89c.47-.67.87-1.28,1.21-1.83a4.14,4.14,0,0,0,.58-1.36c.06-.35-.15-.52-.64-.5a3,3,0,0,0-1.2.45,7.72,7.72,0,0,0-1.55,1.33,19.59,19.59,0,0,0-1.88,2.39c-.68,1-1.42,2.2-2.22,3.62l-.14.34-.64,1.33a1.75,1.75,0,0,1-.5.67,1.27,1.27,0,0,1-.7.24c-.29,0-.7,0-1.23,0a6.6,6.6,0,0,1-1-.07.73.73,0,0,1-.55-.35,1.16,1.16,0,0,1,0-.82,7.94,7.94,0,0,1,.66-1.55c.5-1,1.2-2.23,2.1-3.79s1.89-3.21,3-4.93S93.56,42.18,94.71,40.53Zm13.74,10a10.48,10.48,0,0,0,2.36-.74,5.15,5.15,0,0,0,2.12-1.74q.61-.83.33-1.32a1,1,0,0,0-1-.42,3.56,3.56,0,0,0-1.72.91,7.37,7.37,0,0,0-1.77,2.62ZM159.19,154.6H134.45v-7.79H150.6v-9.06H134.45v-4L129,129.87h30.2V120.6H124.5v43.06h34.69ZM83.8,245.43c-.91.83-2.25,1.78-3.16,2.45-.56,1.2-.63,2.37-.1,2.76s1.86-.35,2.92-1.89c.48-.73,1.09-.41.63.35-1.1,1.83-2.81,3.2-4.31,3.2-.86,0-1.51-.66-1.45-2-1,1-2.46,2-3.21,2s-1.32-.3-1.39-1a2.83,2.83,0,0,1-2,1A1.76,1.76,0,0,1,70,250.41a6.2,6.2,0,0,1-3.14,1.89c-.79,0-1.42-.36-1.39-1.17a2.9,2.9,0,0,1-2.11,1.17c-.88,0-1.22-.59-1.1-1.54a4.61,4.61,0,0,1-3,1.54c-.83,0-1.37-.61-1.28-1.81a5.37,5.37,0,0,1-3.11,1.81c-1.08,0-1.27-1-.39-2.62.38-.66.78-1.27,1.14-1.78a2.46,2.46,0,0,1-1.81.39,4.39,4.39,0,0,1-.55.81l0,.05c-.81,1.39-3.11,3.15-4.17,3.15s-1.79-.63-1.12-2.12,1.05-2.35,1.48-3.19.61-.92,1.33-1,1.34-.13.88.68-1.15,2-1.54,2.71-.84,1.49-.28,1.49a4.28,4.28,0,0,0,2.82-2.08h0a6.25,6.25,0,0,0,.51-.82c-1.07-1.09.68-3.69,1.78-3.2.52.24.11.93-.11,1.56a1.38,1.38,0,0,0,1.73-.75c.41-.56,1.27.31.86,1a.1.1,0,0,0,0,0c-.26.45-1.27,2.28-1.49,2.74-.36.73-.85,1.49-.27,1.49a4.19,4.19,0,0,0,2.8-2.07A15.32,15.32,0,0,1,60,245.82c.24-.36.56-.86.92-1.35H59.31c-.52,0,0-.78.6-.82a9.76,9.76,0,0,0,2.48-.69c1-.41,2.37-.88,1.39.19l-.07.08c1.15-.15,2.22-.29,2.69-.39,1.12-.22-.42,1.63-1.32,1.63H62.75c-.56.77-1.19,1.69-1.63,2.36-1,1.51-1.59,3.54-1.16,3.81s1.86-.35,2.92-1.89h0a12.08,12.08,0,0,1,1-1.75,1.83,1.83,0,0,1,1.52-1c.73-.1,1.24-.08.69.68-2.36,3.33-2.28,4.08-1.72,4.08.84,0,1.37-1.07,2-2.2.27-.58.49-1,.73-1.52.42-.85.61-.92,1.33-1s1.32-.13.88.68-1.15,2-1.54,2.71-.84,1.49-.28,1.49a4.26,4.26,0,0,0,2.82-2.08l0,0a3.51,3.51,0,0,1,.35-.57c1.4-1.91,3.67-2.52,4.82-1.36a1.32,1.32,0,0,1,1.23-.83c.73-.1,1.32-.13.88.68s-1.16,2-1.55,2.71-.85,1.49-.27,1.49a4.25,4.25,0,0,0,2.8-2.08h0a13.37,13.37,0,0,1,1.55-2.92c2-3,3.93-4.13,4.84-3.52C85.82,242.79,85.34,244,83.8,245.43ZM75,247.92a.85.85,0,0,0-.42-.32c-.77-.28-2.08.37-2.76,1.5-.46.78-.34,1.58.49,1.58S74.22,249.59,75,247.92Zm9.24-4.4c-.25-.21-1.29,1.08-2.37,2.5C83.24,244.91,84.48,243.72,84.26,243.52ZM70.2,59.72A3.76,3.76,0,0,0,71.73,61a4.39,4.39,0,0,0,2.34.45,5.71,5.71,0,0,0,2.36-.77,8.1,8.1,0,0,0,2.17-1.9,13,13,0,0,0,1.81-2.94q.9-2,1.79-4.22T84,47.3c.58-1.37,1.18-2.62,1.77-3.73a9.67,9.67,0,0,1,1.79-2.5s0,0,.07,0a23.78,23.78,0,0,0,2.91-.7,17.2,17.2,0,0,0,2.57-1,5.78,5.78,0,0,0,2-1.5,2,2,0,0,0,.57-1.46,1.33,1.33,0,0,0-.79-1.05,3.52,3.52,0,0,0-2-.29,7.9,7.9,0,0,0-2.6.74,12.32,12.32,0,0,0-2.39,1.46,31.08,31.08,0,0,1-4.93,0,40.94,40.94,0,0,1-4.91-.6A26.35,26.35,0,0,1,74,35.56a6.15,6.15,0,0,1-2.49-1.48c-.3-.35-.57-.48-.81-.4a.93.93,0,0,0-.55.64,3.74,3.74,0,0,0-.19,1.31,4.65,4.65,0,0,0,.31,1.63,5.43,5.43,0,0,0,.93,1.62A4.06,4.06,0,0,0,72.8,40.1a11.38,11.38,0,0,0,2.2.71,26,26,0,0,0,2.74.47c1,.11,2,.18,3.09.2s2.17,0,3.27-.07a26.44,26.44,0,0,0-1.62,2.47c-.53.9-1,1.84-1.52,2.8l-1.41,2.86c-.46.94-.91,1.81-1.34,2.59l-.69,1.17a13.84,13.84,0,0,1-.81,1.19,11.53,11.53,0,0,1-.88,1,5.5,5.5,0,0,1-.93.78,3.35,3.35,0,0,1-1.2.51,3.06,3.06,0,0,1-1.24,0,2.33,2.33,0,0,1-1.07-.52,2.19,2.19,0,0,1-.69-1.12c-.14-.43-.3-.64-.48-.62s-.35.2-.5.52a3.93,3.93,0,0,0-.31,1.29,5.56,5.56,0,0,0,.08,1.67A4.76,4.76,0,0,0,70.2,59.72ZM50.48,244.5c.42,1.1,3,0,2.5-1.17S50,243.38,50.48,244.5Zm112.38,4.6a5.72,5.72,0,0,1-4.14,2.68,2.9,2.9,0,0,1-1.74.52,1.63,1.63,0,0,1-1.75-1.67,5.84,5.84,0,0,1-3.77,1.67,2.07,2.07,0,0,1-2.3-2,9.18,9.18,0,0,1-3.57,2,5.26,5.26,0,0,1-2.68,2.64c-3.23,1.13-4.55-1.84-2.28-3.1a7.58,7.58,0,0,1,.81-.34,2.2,2.2,0,0,1-.3-1.08A6.24,6.24,0,0,1,138,252.3c-1.07,0-1.91-.63-1.23-2.12.52-1.15,2-3,1-3-.74,0-2.65,2.77-3.36,4.43-.22.49-.34.68-.56.68h-.42c-.55,0-.77-.15-.6-.66.1-.3.2-.57.3-.85a5.64,5.64,0,0,1-3.58,1.51,2.07,2.07,0,0,1-2.29-1.93,5,5,0,0,1-3.4,1.93c-.84,0-1.48-.64-1.45-1.88a4.85,4.85,0,0,1-3.34,1.88c-.86,0-1.5-.66-1.44-2-1,1-2.46,2-3.21,2s-1.32-.3-1.39-1a2.84,2.84,0,0,1-2,1,1.74,1.74,0,0,1-1.74-1.82,5.36,5.36,0,0,1-3.39,1.82c-1.35,0-1.74-1.1-1.08-2.37s2.1-2.77,1.13-2.74c-.69,0-1.79,1-3.36,3.82l-.07.17c-.53,1.12-.46,1.12-1.51,1.12-.74,0-1.12-.07-.44-1.37a56.48,56.48,0,0,1,5.74-8.82c1.15-1.27,2.22-.76,2.13.29-.12,1.51-2.52,2.66-3.55,4.4a3.49,3.49,0,0,1,2.08-.93c1.72,0,1.33,1.62.13,3.47-.45.69-.78,1.49-.2,1.49a4.2,4.2,0,0,0,2.81-2.08l0,0a4.28,4.28,0,0,1,.34-.57c1.41-1.91,3.68-2.52,4.83-1.36a1.31,1.31,0,0,1,1.23-.83c.73-.1,1.32-.13.88.68s-1.17,2-1.56,2.71-.84,1.49-.27,1.49a4.24,4.24,0,0,0,2.81-2.08h0a13,13,0,0,1,1.55-2.92c2-3,3.93-4.13,4.84-3.52.74.49.27,1.73-1.27,3.13-.91.83-2.25,1.78-3.16,2.45-.56,1.2-.63,2.37-.1,2.76s1.86-.35,2.92-1.89h0a13.47,13.47,0,0,1,1.56-2.92c2-3,3.93-4.13,4.84-3.52.74.49.27,1.73-1.27,3.13-.91.83-2.25,1.78-3.16,2.45-.56,1.2-.63,2.37-.11,2.76s1.87-.35,2.93-1.89h0a4.16,4.16,0,0,1,.16-.4c.78-1.54,2.47-3,4.11-2.33,1.22.52,1.24,1.84.17,2.8a5.63,5.63,0,0,1-2.86,1.27,1.09,1.09,0,0,0,.92.82c1.17.2,2.93-.79,3.93-2.1.33-.72.6-1.27.87-1.81a1.6,1.6,0,0,1,1.56-1c.58,0,.58.22.24,1a3.12,3.12,0,0,1,2-1c1.72,0,1.79,1.44.47,3.37-.46.66-1,1.59-.47,1.59a4.26,4.26,0,0,0,2.82-2.08h0a3.9,3.9,0,0,1,.37-.6c1.35-1.83,3.48-2.46,4.68-1.51.31-.51.53-.57,1.16-.68s1.31-.13.88.68-1.12,2-1.56,2.71a18.33,18.33,0,0,0-1,1.83,7.7,7.7,0,0,0,3.3-2.42h0a4.16,4.16,0,0,1,.16-.4c.78-1.54,2.47-3,4.11-2.33,1.22.52,1.24,1.84.17,2.8a5.67,5.67,0,0,1-2.86,1.27,1.09,1.09,0,0,0,.92.82c1.18.2,3-.82,4-2.15h0c2.21-3,1.91-2.82,3.56-2.82,1,0,1.14.14,1.14.47,0,.68-.78.12-.68,1.15a6.54,6.54,0,0,1-.35,3,4.31,4.31,0,0,0,2.62-1.82C162.68,248,163.3,248.32,162.86,249.1Zm-11.72,0a3.36,3.36,0,0,0,2.2-1.21c.79-1.09-1-1.49-2.07.88Zm-21.85,0a3.36,3.36,0,0,0,2.2-1.21c.79-1.09-1-1.49-2.07.88ZM126,246c1.35-1.11,2.59-2.3,2.37-2.5S127.12,244.6,126,246Zm-4.79,0c1.35-1.11,2.59-2.3,2.37-2.5S122.33,244.6,121.25,246Zm-6.87,1.9a.83.83,0,0,0-.43-.32c-.76-.28-2.08.37-2.75,1.5-.46.78-.34,1.58.49,1.58S113.58,249.59,114.38,247.92Zm29.44,4.26a4,4,0,0,0-2,.07c-1.44.47-1.41,1.57-.39,1.59C142.08,253.84,142.94,253.4,143.82,252.18Zm2.14-4.52-.15-.06c-.77-.28-2.09.37-2.76,1.5-.46.78-.34,1.58.49,1.58S145.18,249.53,146,247.66Zm12.27-.5s-.78.89-1.36,1.69c-1.28,1.76.07,2.44.7,1.81C158.45,249.78,158,247.92,158.23,247.16ZM34.63,229.67h129v-2.46h-129Zm65.16,20.87c.43,2.37-1.92,4.75-5.83,4.75-4.46,0-7.23-4.77-4.51-10.4a14.52,14.52,0,0,1,2.86-4c-1.8-2.89,2.7-6.31,2.28-3.83a3.76,3.76,0,0,0,.15,1.91,10.86,10.86,0,0,1,6-1.66c5.22.13,4.89,6.28-1.28,6.5a10,10,0,0,1-5-1,12.21,12.21,0,0,0-2,3c-1.85,3.94-1.33,7.63,1.26,7.79a2.64,2.64,0,0,0,2.18-4.43C94.63,247.93,99.27,247.84,99.79,250.54Zm-3.45-9.48a5.45,5.45,0,0,0,3.9,1c2.93-.45,3.06-3.11.22-2.88A8.39,8.39,0,0,0,96.34,241.06Zm-27-82a4.09,4.09,0,0,1-1.1,2.88l4.21,6.31H60.61l-3.11-4.65H39.66a5.23,5.23,0,0,1-3.55-1.29A4.12,4.12,0,0,1,34.63,159V125a4.18,4.18,0,0,1,1.48-3.2,5.12,5.12,0,0,1,3.55-1.33H64.29a5.1,5.1,0,0,1,3.55,1.33,4.14,4.14,0,0,1,1.48,3.2ZM59.17,129.67H39.12l5.66,4V154.4H59.17ZM69.32,49.51H34.64V52H69.32ZM39.66,110.26H64.2A5.37,5.37,0,0,0,67.84,109a4.1,4.1,0,0,0,1.48-3.25v-10H59.17v5.42H44.68V80.43l-5.56-4H59.17v5.42H69.32v-10a4.26,4.26,0,0,0-1.48-3.3A5.27,5.27,0,0,0,64.2,67.2H39.66a5.1,5.1,0,0,0-3.6,1.33,4.35,4.35,0,0,0-1.43,3.3v33.9A4.18,4.18,0,0,0,36.06,109,5.2,5.2,0,0,0,39.66,110.26ZM55,239.31c1.46.34.13-3.54-3.29-2.59-6.26,1.71-9.86,14.79-14.88,17.63,2.59-2.95,5.56-10.67,3.11-14.68-2-3.29-6.67-.79-4.78-.23,3.76,1.11,3.27,11.55.09,15-.76.86-.38,1.65.41,1.56C42.91,255.18,48.74,237.93,55,239.31ZM44.78,217H34.63V173.92H63.9a5.22,5.22,0,0,1,3.64,1.33,4.14,4.14,0,0,1,1.48,3.2v19.12a4.26,4.26,0,0,1-1.48,3.3,5.27,5.27,0,0,1-3.64,1.33L73.75,217H61.93L52.07,202.2H44.78Zm-5.66-33.9,5.66,4V193H58.87v-9.95H39.12Z"/>
   </g>
</svg>