<svg xmlns="http://www.w3.org/2000/svg" id="f67fb40f-33e1-47e0-943b-7f02b7d39acc" data-name="Layer 1" viewBox="0 0 426.88 75.72"><script xmlns=""/><path d="M412.29,42.07a.44.44,0,0,0-.44.07,1.54,1.54,0,0,0-.52.57,5.39,5.39,0,0,1-.75,1,7.43,7.43,0,0,1-1,.87,7.7,7.7,0,0,1-1.08.67,4.76,4.76,0,0,1-1.08.43,8.08,8.08,0,0,0,.52-2.14,10.78,10.78,0,0,0,0-2.41,1.18,1.18,0,0,1,.11-.78.83.83,0,0,1,.35-.3l.38-.2a.58.58,0,0,0,.17-.49.8.8,0,0,0,0-.32.36.36,0,0,0-.21-.21,1.46,1.46,0,0,0-.51-.09c-.22,0-.53,0-.92,0l-1,.07a2.55,2.55,0,0,0-.72.15,1.78,1.78,0,0,0-.6.38,5.39,5.39,0,0,0-.67.75c-.25.32-.56.75-.92,1.27s-.82,1.16-1.37,1.94h0a8.5,8.5,0,0,1-1.29,1.47A10,10,0,0,1,399.11,46a7.57,7.57,0,0,1-1.61.76,3.38,3.38,0,0,1-1.46.19,1.87,1.87,0,0,1-.84-.31,1.25,1.25,0,0,1-.52-.81A10.4,10.4,0,0,0,397,45a7.72,7.72,0,0,0,2-1.35,3.81,3.81,0,0,0,.89-1.21,2.78,2.78,0,0,0,.27-1.21,1.86,1.86,0,0,0-.38-1,2.32,2.32,0,0,0-1-.71,3,3,0,0,0-1.81-.08,5.23,5.23,0,0,0-1.72.82,7.13,7.13,0,0,0-1.49,1.42,9.23,9.23,0,0,0-1.1,1.72c-.12.24-.22.47-.31.69a11.69,11.69,0,0,1-2.24,2.3,14.64,14.64,0,0,1-2.61,1.56l.69-1.47q.35-.72.72-1.35c.17-.26.35-.56.54-.91s.4-.71.6-1.09.42-.75.62-1.12l.56-1.06a1.41,1.41,0,0,0,.22-.71.33.33,0,0,0-.22-.31,1.23,1.23,0,0,0-.56,0l-.75.13-.61.15a2.24,2.24,0,0,0-.44.2,1.17,1.17,0,0,0-.34.29q-.15.2-.33.48a2.89,2.89,0,0,0-1.56-.53,4.56,4.56,0,0,0-1.84.32A7.41,7.41,0,0,0,382.81,42a9.05,9.05,0,0,0-1.68,1.8,7,7,0,0,0-.59,1,8.11,8.11,0,0,1-.88,1.19A9.11,9.11,0,0,1,378.55,47a6.28,6.28,0,0,1-1.14.76,2.78,2.78,0,0,1-1.05.32c-.2,0-.31-.06-.32-.21a1.27,1.27,0,0,1,.11-.58,5,5,0,0,1,.4-.8l.52-.83a10.27,10.27,0,0,0,1.07-2.07,3.43,3.43,0,0,0,.26-1.6,1.32,1.32,0,0,0-.58-1,2.3,2.3,0,0,0-1.46-.28,3.16,3.16,0,0,0-1.53.53,8.91,8.91,0,0,0-1.49,1.2,2.64,2.64,0,0,0,.34-1.15q0-.33-.69-.24c-.29.06-.54.11-.75.17a1.93,1.93,0,0,0-.59.26,2.28,2.28,0,0,0-.51.48,3.64,3.64,0,0,0-.47.78c-.15.33-.31.67-.48,1s-.34.7-.51,1.09l-.32.7a9.28,9.28,0,0,1-1.22,1.38,10.51,10.51,0,0,1-1.55,1.17,8.06,8.06,0,0,1-1.61.76,3.26,3.26,0,0,1-1.47.18,1.76,1.76,0,0,1-.84-.31,1.27,1.27,0,0,1-.52-.81,10,10,0,0,0,2.31-.81,7.61,7.61,0,0,0,2-1.36,4,4,0,0,0,.9-1.2,2.64,2.64,0,0,0,.26-1.22,1.79,1.79,0,0,0-.38-1,2.28,2.28,0,0,0-1-.71,3,3,0,0,0-1.81-.08,5.08,5.08,0,0,0-1.73.82,7.12,7.12,0,0,0-1.49,1.42A8.85,8.85,0,0,0,360,45.48c-.12.24-.22.47-.32.7a11.56,11.56,0,0,1-1.18,1.49,7.87,7.87,0,0,1-1.25,1.08,3.79,3.79,0,0,1-1.09.52,1,1,0,0,1-.77-.06,1.1,1.1,0,0,1-.43-.62,2.77,2.77,0,0,1-.1-1,5.58,5.58,0,0,1,.2-1.19,10.6,10.6,0,0,1,.48-1.36l1.12-.89c.41-.32.82-.66,1.23-1l1.24-1.05c.41-.36.79-.7,1.12-1a9.22,9.22,0,0,0,2.23-3c.33-.87.21-1.46-.34-1.8a1.68,1.68,0,0,0-1.27-.09,5.21,5.21,0,0,0-1.72.92,14.67,14.67,0,0,0-2,1.93,26.49,26.49,0,0,0-2.2,3,19.9,19.9,0,0,0-2.27,4.34,1.09,1.09,0,0,0,0,.17,12.31,12.31,0,0,1-1.25,1.57,7.29,7.29,0,0,1-1.25,1.07,3.49,3.49,0,0,1-1.09.53,1,1,0,0,1-.77-.06,1.13,1.13,0,0,1-.43-.62,2.8,2.8,0,0,1-.1-1,5.77,5.77,0,0,1,.2-1.2,11,11,0,0,1,.48-1.35l1.12-.89c.41-.32.82-.66,1.24-1L352,42.62c.41-.36.79-.7,1.12-1a9.13,9.13,0,0,0,2.23-3c.33-.86.21-1.45-.34-1.79a1.68,1.68,0,0,0-1.27-.09,5,5,0,0,0-1.71.92,14.14,14.14,0,0,0-2,1.93,25.6,25.6,0,0,0-2.2,3,19.68,19.68,0,0,0-2.27,4.34l-.05.17a7.51,7.51,0,0,1-.9,1.24,9,9,0,0,1-1.09,1,6.22,6.22,0,0,1-1.16.76,2.86,2.86,0,0,1-1,.32c-.22,0-.35,0-.38-.18a.9.9,0,0,1,0-.52,6.25,6.25,0,0,1,.3-.72c.13-.27.28-.54.43-.82l.52-.92.6-1.08L343.5,45c.21-.37.4-.73.57-1.06a1.41,1.41,0,0,0,.22-.7.34.34,0,0,0-.22-.32,1.12,1.12,0,0,0-.56,0l-.75.12-.65.18a2,2,0,0,0-.46.22,1.44,1.44,0,0,0-.37.37,4.51,4.51,0,0,0-.36.59,2.69,2.69,0,0,0-1.56-.72,4.19,4.19,0,0,0-1.89.24,7,7,0,0,0-2,1.1,8.31,8.31,0,0,0-1.76,1.87,7.61,7.61,0,0,0-.62,1,7.61,7.61,0,0,1-.83,1.15,9.13,9.13,0,0,1-1.1,1.06,6.2,6.2,0,0,1-1.14.75,2.78,2.78,0,0,1-1.05.32c-.22,0-.36,0-.41-.17a.81.81,0,0,1,0-.52,3.81,3.81,0,0,1,.28-.73c.13-.28.29-.55.45-.82a13.17,13.17,0,0,0,1.09-2,5.51,5.51,0,0,0,.44-1.68,1.38,1.38,0,0,0-.37-1.11,1.76,1.76,0,0,0-1.36-.33,4,4,0,0,0-1.54.48A9.38,9.38,0,0,0,326,45.42a9,9,0,0,1,1.45-1.89l1.7-1.72a15.1,15.1,0,0,0,1.45-1.64,3.19,3.19,0,0,0,.69-1.65,1.42,1.42,0,0,0-.2-1,1.06,1.06,0,0,0-.69-.48,1.79,1.79,0,0,0-1,.2,3.82,3.82,0,0,0-1.23,1,38,38,0,0,0-2.37,3.21q-1.26,1.89-2.45,3.85c-.8,1.32-1.53,2.56-2.18,3.75S320,51.26,319.58,52a7,7,0,0,0-.41,1,3.88,3.88,0,0,0,0-.9,2.5,2.5,0,0,0-.63-1.22,3.6,3.6,0,0,0-1.07-.72,4.1,4.1,0,0,0-1.23-.3,3.59,3.59,0,0,0-1.07.06.91.91,0,0,0-.59.34c-.1.16,0,.34.2.54a2.46,2.46,0,0,1,.81,1.54,3.15,3.15,0,0,1-.28,1.68,3.43,3.43,0,0,1-1.16,1.36,3,3,0,0,1-1.81.55,2.27,2.27,0,0,1-1.73-.71,3.58,3.58,0,0,1-.83-1.9,8.38,8.38,0,0,1,.09-2.75,13.77,13.77,0,0,1,1.06-3.27,13.22,13.22,0,0,1,1-1.75,17.87,17.87,0,0,1,1.27-1.7,9,9,0,0,0,2.71.75,13,13,0,0,0,2.86,0,7.69,7.69,0,0,0,2.89-.79,5.6,5.6,0,0,0,1.84-1.48,3.56,3.56,0,0,0,.77-1.77,2.68,2.68,0,0,0-.3-1.68,3,3,0,0,0-1.36-1.23,5.09,5.09,0,0,0-2.41-.42,11.15,11.15,0,0,0-3.49.68,14.74,14.74,0,0,0-3.16,1.62,4.33,4.33,0,0,1-.17-2.13c.08-.46,0-.74-.17-.85a.76.76,0,0,0-.73.08,3.33,3.33,0,0,0-.94.79,4.53,4.53,0,0,0-.83,1.29,4,4,0,0,0-.36,1.55,2.83,2.83,0,0,0,.48,1.59A16.13,16.13,0,0,0,309,44.08a17.43,17.43,0,0,0-1.39,2.43,11.8,11.8,0,0,0-1.19,4.56,7.5,7.5,0,0,0,.7,3.66,5.63,5.63,0,0,0,2.22,2.39,5.71,5.71,0,0,0,3.31.72,9.19,9.19,0,0,0,2.94-.65,7.07,7.07,0,0,0,2.15-1.36,5,5,0,0,0,1.23-1.8c.06-.16.11-.31.15-.46a.38.38,0,0,0,0,.19.5.5,0,0,0,.41.23,4.17,4.17,0,0,0,.71,0c.39,0,.69-.05.9-.08a1,1,0,0,0,.51-.21,1.45,1.45,0,0,0,.37-.52c.11-.23.26-.57.47-1l.1-.26c.58-1.08,1.13-2,1.62-2.75a16,16,0,0,1,1.37-1.84,6.49,6.49,0,0,1,1.14-1,2.14,2.14,0,0,1,.88-.38c.35,0,.51.07.47.33a3.48,3.48,0,0,1-.43,1c-.25.42-.54.88-.88,1.39a11.43,11.43,0,0,0-.85,1.44,4.11,4.11,0,0,0-.45,1.38,2,2,0,0,0,.14,1.11,1.5,1.5,0,0,0,.69.72,2.31,2.31,0,0,0,1.23.21,4.7,4.7,0,0,0,1.92-.58,10.78,10.78,0,0,0,1.89-1.27,13.37,13.37,0,0,0,1.21-1.17,3.29,3.29,0,0,0,.1.72,2.43,2.43,0,0,0,.88,1.37,2.39,2.39,0,0,0,1.64.43,3.53,3.53,0,0,0,1.71-.55,6.51,6.51,0,0,0,1.31-1.11,1.27,1.27,0,0,0,.66,1.07,2.59,2.59,0,0,0,1.41.26,3.81,3.81,0,0,0,1.47-.55,13.21,13.21,0,0,0,1.8-1.27,15.4,15.4,0,0,0,1.5-1.42,3.92,3.92,0,0,0,0,.48,2.47,2.47,0,0,0,.67,1.78,1.89,1.89,0,0,0,1.5.52,4.81,4.81,0,0,0,1.71-.48,8.36,8.36,0,0,0,1.72-1.11,11.51,11.51,0,0,0,1.54-1.51,1.85,1.85,0,0,0,0,.33,2.42,2.42,0,0,0,.67,1.78,1.88,1.88,0,0,0,1.49.52,4.6,4.6,0,0,0,1.72-.48,8.36,8.36,0,0,0,1.72-1.11,11.9,11.9,0,0,0,1.6-1.58,3,3,0,0,0,.28,1.1,2.64,2.64,0,0,0,1.18,1.18,3.71,3.71,0,0,0,2,.33,6.82,6.82,0,0,0,2.05-.47,9.74,9.74,0,0,0,2-1.09,13,13,0,0,0,1.25-1l-.07.17c-.11.35-.24.72-.37,1.11s-.12.66,0,.78a1.37,1.37,0,0,0,.85.15l.63,0a.51.51,0,0,0,.41-.25,5.6,5.6,0,0,0,.42-.81,21.2,21.2,0,0,1,1.07-2.13c.45-.79.92-1.53,1.41-2.24a17.56,17.56,0,0,1,1.42-1.78,2.33,2.33,0,0,1,1.11-.78c.36,0,.51.09.47.4a3.85,3.85,0,0,1-.42,1.16c-.23.47-.51,1-.83,1.53s-.58,1-.78,1.47a3.55,3.55,0,0,0-.36,1.45,1.47,1.47,0,0,0,.3,1,1.51,1.51,0,0,0,.79.52,3.33,3.33,0,0,0,1.11.1,3.55,3.55,0,0,0,1.47-.55,12.29,12.29,0,0,0,1.8-1.26,15.38,15.38,0,0,0,1.38-1.3,3,3,0,0,0,.44,1.59l-.63.28a4,4,0,0,0-.58.31,3.72,3.72,0,0,0-1.26,1.19,2.67,2.67,0,0,0-.43,1.31,2.22,2.22,0,0,0,.32,1.23,2.19,2.19,0,0,0,1,.88,3.74,3.74,0,0,0,1.61.29,5.72,5.72,0,0,0,2.17-.52,5.88,5.88,0,0,0,2.34-1.73,14.43,14.43,0,0,0,1.64-2.46,18.09,18.09,0,0,0,1.87-.85,15.38,15.38,0,0,0,1.8-1.12,13.19,13.19,0,0,0,1.63-1.39,3.2,3.2,0,0,0,.29,1.27,2.62,2.62,0,0,0,1.19,1.18,3.67,3.67,0,0,0,2,.34,7.15,7.15,0,0,0,2.06-.48,9.46,9.46,0,0,0,2-1.09,12.9,12.9,0,0,0,1.54-1.28,2.63,2.63,0,0,0,.13.86,2.07,2.07,0,0,0,.89,1.11,2.58,2.58,0,0,0,1.58.34,4.55,4.55,0,0,0,2.59-1,9.16,9.16,0,0,0,1.59-.49,8.88,8.88,0,0,0,1.7-.88,10.05,10.05,0,0,0,1.6-1.29,7,7,0,0,0,1.28-1.73,1.31,1.31,0,0,0,.23-.73A.42.42,0,0,0,412.29,42.07ZM395,43.78a5.91,5.91,0,0,1,1.29-2,2.88,2.88,0,0,1,1.26-.75.66.66,0,0,1,.76.26c.14.23.06.56-.24,1a4.22,4.22,0,0,1-1.55,1.38,8.4,8.4,0,0,1-1.73.65Zm-32.53,2.14a5.81,5.81,0,0,1,1.3-2,2.88,2.88,0,0,1,1.26-.75.67.67,0,0,1,.76.26c.14.23.06.56-.25,1A4.16,4.16,0,0,1,364,45.78a8.69,8.69,0,0,1-1.73.66Zm-3.85-5.31c.38-.51.73-1,1-1.33a6.85,6.85,0,0,1,.81-.85c.23-.19.39-.25.49-.19s0,.24-.13.48a7.44,7.44,0,0,1-.75.92c-.34.37-.74.77-1.2,1.22s-.94.88-1.45,1.34C357.85,41.65,358.24,41.12,358.63,40.61Zm-7.13.47c.39-.52.73-1,1-1.33a6.85,6.85,0,0,1,.81-.85c.23-.19.39-.26.49-.19s0,.24-.12.48a7.68,7.68,0,0,1-.76.92c-.34.37-.73.77-1.2,1.21s-.94.89-1.45,1.35C350.72,42.12,351.11,41.59,351.5,41.08Zm-33.91-.91a7.35,7.35,0,0,1,2.29-.79,2.46,2.46,0,0,1,1.75.21,1,1,0,0,1,.53,1,1.85,1.85,0,0,1-.67,1.19,3.67,3.67,0,0,1-1.86.87,5.4,5.4,0,0,1-2.23,0,5.92,5.92,0,0,1-2.13-.89A13.17,13.17,0,0,1,317.59,40.17Zm20.58,9.11a3.15,3.15,0,0,1-2.09,1.25,1.17,1.17,0,0,1-.73-.15.84.84,0,0,1-.35-.51,1.78,1.78,0,0,1,0-.76,3,3,0,0,1,.34-.88,5.72,5.72,0,0,1,.91-1.18,5.34,5.34,0,0,1,1.09-.86,3.94,3.94,0,0,1,1.12-.47,2.06,2.06,0,0,1,1,0,1.2,1.2,0,0,1,.63.44A12.49,12.49,0,0,1,338.17,49.28ZM382,51.67a3.45,3.45,0,0,1-1.63.66,1.13,1.13,0,0,1-.85-.22.71.71,0,0,1-.23-.64,1.49,1.49,0,0,1,.45-.8,3.59,3.59,0,0,1,1.21-.75,5,5,0,0,1,1.45-.33,6.81,6.81,0,0,1,1.5,0A7.61,7.61,0,0,1,382,51.67Zm3.36-5.58a2.49,2.49,0,0,1-1.89,1.32,1.19,1.19,0,0,1-.73-.15.81.81,0,0,1-.35-.51,1.73,1.73,0,0,1,0-.75,3,3,0,0,1,.34-.88,5.54,5.54,0,0,1,.91-1.18,5.83,5.83,0,0,1,1.1-.87,3.79,3.79,0,0,1,1.12-.46,1.91,1.91,0,0,1,1,0l.23.08A19.64,19.64,0,0,1,385.38,46.09Zm19.84-4.24c0,.46,0,.94,0,1.44a8.21,8.21,0,0,1-.19,1.49,2.63,2.63,0,0,1-.64,1.24,1.18,1.18,0,0,1-.83.39.92.92,0,0,1-.76-.3,1.36,1.36,0,0,1-.23-1,3.83,3.83,0,0,1,.78-1.71c.22-.3.45-.61.68-.94s.46-.61.66-.86.46-.59.68-.85A3.22,3.22,0,0,0,405.22,41.85Z" style="fill:#d7be68"/><path d="M328.51,22.86A4.41,4.41,0,0,0,328,24a3.31,3.31,0,0,0-.09,1.16,1.44,1.44,0,0,0,.47.92c-.12.23-.24.45-.37.67s-.25.42-.39.62a7,7,0,0,1-.91,1.24,9.82,9.82,0,0,1-1.1,1.05,6.16,6.16,0,0,1-1.15.76,2.78,2.78,0,0,1-1.05.32c-.2,0-.32,0-.36-.18a.83.83,0,0,1,.05-.52,6.5,6.5,0,0,1,.31-.72l.43-.82c.15-.27.33-.57.52-.92l.59-1.08c.2-.38.41-.75.62-1.13s.4-.73.56-1.06a1.46,1.46,0,0,0,.24-.7.32.32,0,0,0-.22-.32,1.3,1.3,0,0,0-.57,0l-.76.12-.68.19a1.4,1.4,0,0,0-.49.24,1.86,1.86,0,0,0-.4.46,6.47,6.47,0,0,0-.42.78l-.46,1c-.16.34-.33.7-.5,1.09s-.37.82-.56,1.27-.42,1-.67,1.55a4,4,0,0,0-.39,1.45,1.6,1.6,0,0,0,.25,1,1.4,1.4,0,0,0,.75.52,3,3,0,0,0,1.06.11,3.57,3.57,0,0,0,1.48-.56,13.46,13.46,0,0,0,1.8-1.26,15,15,0,0,0,1.73-1.65,9.2,9.2,0,0,0,1.19-1.64l.07-.07a6.61,6.61,0,0,0,.8-1.26,2.92,2.92,0,0,0,1.33-.09,4.15,4.15,0,0,0,1.37-.67c-.27.41-.55.84-.83,1.31s-.57.94-.86,1.45a5,5,0,0,0-.8,2.9c.11.7.57,1,1.38,1a4.1,4.1,0,0,0,1.64-.56,12.55,12.55,0,0,0,1.79-1.27,14.46,14.46,0,0,0,1.19-1.16,2.12,2.12,0,0,0,0,.24,2.4,2.4,0,0,0,.5,1.79,1.69,1.69,0,0,0,1.43.53,4.81,4.81,0,0,0,1.71-.48A8.36,8.36,0,0,0,341,30.46a9.72,9.72,0,0,0,1.05-1,2.91,2.91,0,0,0,.11,1.42,1.35,1.35,0,0,0,1.53.75,3.45,3.45,0,0,0,1.58-.53,6.12,6.12,0,0,0,1.57-1.41,1.26,1.26,0,0,0,.56,1.28,2.42,2.42,0,0,0,1.5.32,3.52,3.52,0,0,0,1.49-.55,13.46,13.46,0,0,0,1.8-1.26,15.15,15.15,0,0,0,1.37-1.29,4.18,4.18,0,0,0,.1.82,2.41,2.41,0,0,0,.89,1.37,2.31,2.31,0,0,0,1.63.43,3.5,3.5,0,0,0,1.72-.55,6.46,6.46,0,0,0,1.31-1.11,1.29,1.29,0,0,0,.65,1.07,2.54,2.54,0,0,0,1.41.26,3.78,3.78,0,0,0,1.48-.55,12.7,12.7,0,0,0,1.8-1.27,18,18,0,0,0,1.5-1.41c0,.16,0,.32,0,.47a2.49,2.49,0,0,0,.67,1.78,1.89,1.89,0,0,0,1.5.52,4.53,4.53,0,0,0,1.71-.47,9.36,9.36,0,0,0,1.73-1.11,12.24,12.24,0,0,0,1.61-1.61,12.75,12.75,0,0,0,1.37-2,1.43,1.43,0,0,0,.24-.73.37.37,0,0,0-.18-.37.54.54,0,0,0-.46.07,1.44,1.44,0,0,0-.53.56A12.28,12.28,0,0,1,372.4,26,7.79,7.79,0,0,1,371.15,27a3.48,3.48,0,0,1-1.1.52,1,1,0,0,1-.77-.06,1.09,1.09,0,0,1-.42-.61,2.6,2.6,0,0,1-.1-.95,5,5,0,0,1,.2-1.2,8.23,8.23,0,0,1,.48-1.36c.33-.27.7-.57,1.12-.89s.82-.65,1.23-1L373,20.43c.41-.35.78-.69,1.12-1a9.11,9.11,0,0,0,2.23-3c.32-.86.21-1.46-.34-1.79a1.65,1.65,0,0,0-1.28-.1,5.17,5.17,0,0,0-1.71.92,14.25,14.25,0,0,0-2,1.94,25.4,25.4,0,0,0-2.21,2.95,20.59,20.59,0,0,0-2.27,4.34l-.05.17a7.61,7.61,0,0,1-.89,1.24,8.42,8.42,0,0,1-1.1,1.06,6.59,6.59,0,0,1-1.16.76,2.77,2.77,0,0,1-1,.31c-.22,0-.34,0-.38-.17a1.11,1.11,0,0,1,.05-.52,4.66,4.66,0,0,1,.31-.73c.13-.27.27-.54.42-.82s.33-.57.52-.92l.61-1.08c.2-.38.41-.75.62-1.12s.4-.73.57-1.06a1.38,1.38,0,0,0,.23-.71.34.34,0,0,0-.23-.31,1.18,1.18,0,0,0-.55,0c-.24,0-.49.08-.76.13s-.46.12-.64.18a1.45,1.45,0,0,0-.47.22,1.54,1.54,0,0,0-.36.36c-.11.15-.23.35-.37.59a2.69,2.69,0,0,0-1.56-.72,4.52,4.52,0,0,0-1.89.24,7.18,7.18,0,0,0-2,1.1,8.55,8.55,0,0,0-1.77,1.87,8.67,8.67,0,0,0-.61,1,7.65,7.65,0,0,1-.85,1.16A9.11,9.11,0,0,1,352.15,28a7.28,7.28,0,0,1-1.14.76A2.78,2.78,0,0,1,350,29q-.3,0-.36-.18a.76.76,0,0,1,0-.52,6.57,6.57,0,0,1,.31-.73c.13-.26.28-.54.43-.82l.52-.91c.19-.35.39-.71.59-1.09s.4-.75.62-1.12l.56-1.06a1.35,1.35,0,0,0,.23-.71.34.34,0,0,0-.23-.31,1.18,1.18,0,0,0-.55,0l-.76.13-.68.18a1.62,1.62,0,0,0-.49.25,1.78,1.78,0,0,0-.4.45,6.09,6.09,0,0,0-.42.79c-.18.36-.36.73-.53,1.1s-.35.79-.55,1.24L347.58,27a11.74,11.74,0,0,1-.69,1.1,4.24,4.24,0,0,1-.75.77,1.5,1.5,0,0,1-.86.34.45.45,0,0,1-.45-.22,1.34,1.34,0,0,1,.09-.93,13,13,0,0,1,.91-1.91q.68-1.23,2-3.18a1.61,1.61,0,0,0,.33-.68.29.29,0,0,0-.14-.32.87.87,0,0,0-.49-.05c-.22,0-.46.06-.73.11s-.52.13-.72.2a1.77,1.77,0,0,0-.53.27,3.46,3.46,0,0,0-.47.47c-.16.2-.34.45-.54.74a21.72,21.72,0,0,0-1.32,2.22l-.23.51A10.65,10.65,0,0,1,341.76,28,8.67,8.67,0,0,1,340.53,29a4,4,0,0,1-1.09.53,1,1,0,0,1-.79-.05c-.15-.09-.22-.33-.19-.73a7.1,7.1,0,0,1,.28-1.41,14.12,14.12,0,0,1,.67-1.8,12.92,12.92,0,0,1,1-1.84c.33-.53.72-1.12,1.14-1.77s.86-1.3,1.28-1.91l3.47-.23a1.78,1.78,0,0,0,.72-.25,4.78,4.78,0,0,0,.76-.56,5.73,5.73,0,0,0,.64-.67,2.45,2.45,0,0,0,.38-.63c.06-.19.06-.32,0-.41s-.24-.1-.51,0a16.5,16.5,0,0,1-1.63.37l-2.38.47.1-.13q.56-.64.51-.84c0-.13-.18-.18-.44-.14a4.81,4.81,0,0,0-1,.32c-.39.17-.77.34-1.14.52s-1,.45-1.7.71a9.84,9.84,0,0,1-2,.56,1.43,1.43,0,0,0-.61.26,1.66,1.66,0,0,0-.44.44.65.65,0,0,0-.14.42c0,.11.11.17.31.15l2.35-.15c-.27.38-.52.76-.75,1.13s-.43.69-.61,1a23.42,23.42,0,0,0-2.35,4.35,1.59,1.59,0,0,1-.07.2,8.4,8.4,0,0,1-.87,1.21,10,10,0,0,1-1.1,1.06,6.56,6.56,0,0,1-1.14.75,2.78,2.78,0,0,1-1,.32c-.22,0-.34,0-.38-.16a.9.9,0,0,1,.07-.51,6.64,6.64,0,0,1,.31-.74c.13-.28.27-.55.4-.83l.43-.86c.2-.4.42-.82.66-1.25l.66-1.26c.21-.4.37-.68.47-.86,0,0,0,0,0,0a1.15,1.15,0,0,0,.13-.82,1.29,1.29,0,0,0-.32-.64A.86.86,0,0,0,334,22a.56.56,0,0,0-.54.29,5.26,5.26,0,0,1-.43.59,2,2,0,0,1-.53.48,1.9,1.9,0,0,1-.69.26,2.49,2.49,0,0,1-.92-.06c.08-.24.18-.48.28-.72a3.48,3.48,0,0,0,.21-.68,1.38,1.38,0,0,0,0-.57.48.48,0,0,0-.35-.35,1.15,1.15,0,0,0-.87,0,2.7,2.7,0,0,0-.89.63A4.91,4.91,0,0,0,328.51,22.86Zm44-4c.39-.51.74-1,1-1.33a6.66,6.66,0,0,1,.81-.84c.22-.2.39-.26.49-.2s0,.24-.13.49a11,11,0,0,1-.75.92c-.34.36-.74.77-1.2,1.21s-.95.89-1.45,1.34C371.7,19.93,372.1,19.4,372.48,18.89Zm-16.49,8a3,3,0,0,1,.35-.88,5.5,5.5,0,0,1,.9-1.18,5.83,5.83,0,0,1,1.1-.87,3.91,3.91,0,0,1,1.12-.46,1.91,1.91,0,0,1,1,0,1.13,1.13,0,0,1,.63.43,12.76,12.76,0,0,1-1.91,3.13,3.15,3.15,0,0,1-2.09,1.24,1.15,1.15,0,0,1-.73-.15.79.79,0,0,1-.36-.51A1.9,1.9,0,0,1,356,26.93Z" style="fill:#d7be68"/><path d="M325.08,21.81a1.92,1.92,0,0,0,.87.05,3.41,3.41,0,0,0,1-.31,3.21,3.21,0,0,0,.86-.62,2.09,2.09,0,0,0,.52-.79,1.11,1.11,0,0,0,0-.84,1,1,0,0,0-.59-.55,1.76,1.76,0,0,0-.86-.06,3.09,3.09,0,0,0-.94.35,3.59,3.59,0,0,0-.83.64,2.22,2.22,0,0,0-.52.79,1,1,0,0,0,0,.82A.85.85,0,0,0,325.08,21.81Z" style="fill:#d7be68"/><path d="M308.32,33.89a9.6,9.6,0,0,1-1.51,2.62,1.82,1.82,0,0,0-.42.72,1,1,0,0,0,0,.58.61.61,0,0,0,.31.36.83.83,0,0,0,.57,0,7.26,7.26,0,0,0,3-1.34,20.47,20.47,0,0,0,2.85-2.6,37.53,37.53,0,0,0,2.74-3.38q1.35-1.84,2.67-3.71c.88-1.24,1.76-2.44,2.62-3.6a27.19,27.19,0,0,1,2.6-3,11.17,11.17,0,0,1,2.59-2,4.17,4.17,0,0,1,2.61-.5.49.49,0,0,0,.56-.19.92.92,0,0,0,.06-.67,2.28,2.28,0,0,0-.42-.86,3.12,3.12,0,0,0-.87-.77,3,3,0,0,0-1.3-.41,4.2,4.2,0,0,0-1.71.24,7.68,7.68,0,0,0-2.49,1.43,16.15,16.15,0,0,0-2.27,2.32,33.33,33.33,0,0,0-2.1,2.95c-.68,1.07-1.35,2.16-2,3.28l-1.92,3.33c-.63,1.1-1.26,2.13-1.9,3.09a26.24,26.24,0,0,1-1.94,2.6,9.44,9.44,0,0,1-2,1.82A14.81,14.81,0,0,0,310,34.09a22.15,22.15,0,0,0,1.35-2.76,25.08,25.08,0,0,0,1.05-3.1,20.36,20.36,0,0,0,.57-3.17,12.36,12.36,0,0,0-.06-3,6.33,6.33,0,0,0-.89-2.48,3.29,3.29,0,0,0-1.33-1.25,3.63,3.63,0,0,0-1.53-.4,4.31,4.31,0,0,0-1.45.19,4,4,0,0,0-1.09.53,1,1,0,0,0-.44.61c0,.2.14.34.5.42A2.66,2.66,0,0,1,308.42,21a8,8,0,0,1,1,2.58,15.44,15.44,0,0,1,.28,3.36,23,23,0,0,1-.38,3.62A18.45,18.45,0,0,1,308.32,33.89Z" style="fill:#d7be68"/><polygon points="14.17 14.17 14.17 61.55 297.64 61.55 292.12 53.77 297.64 45.81 292.12 37.86 297.64 29.9 292.12 21.95 297.64 14.17 14.17 14.17" style="fill:#d7be68"/><path d="M50.49,27.06H23.65V26H50.49Zm0,22.19H23.65v1H50.49ZM33.43,35l0,0A14.43,14.43,0,0,0,35,34.61a8.38,8.38,0,0,0,1.36-.54,3.27,3.27,0,0,0,1.07-.79,1.17,1.17,0,0,0,.3-.78.74.74,0,0,0-.42-.55,1.87,1.87,0,0,0-1.06-.16,4.48,4.48,0,0,0-1.38.39,6.48,6.48,0,0,0-1.26.78A17.4,17.4,0,0,1,31,33a22.81,22.81,0,0,1-2.6-.32,13.3,13.3,0,0,1-2.17-.58,3.18,3.18,0,0,1-1.32-.78c-.16-.18-.3-.25-.43-.21a.47.47,0,0,0-.29.34,1.94,1.94,0,0,0-.1.69,2.51,2.51,0,0,0,.16.87,3.06,3.06,0,0,0,.49.85,2.18,2.18,0,0,0,.88.65,6,6,0,0,0,1.17.37,11.8,11.8,0,0,0,1.45.25c.51.06,1.06.1,1.63.11s1.15,0,1.73,0a14.17,14.17,0,0,0-.86,1.31c-.28.48-.54,1-.8,1.48l-.75,1.52c-.24.49-.48.95-.71,1.36-.11.2-.23.4-.36.62s-.28.43-.43.63a5.2,5.2,0,0,1-.47.55,2.67,2.67,0,0,1-.49.41,1.82,1.82,0,0,1-.64.27,1.43,1.43,0,0,1-.65,0,1.25,1.25,0,0,1-.57-.27,1.14,1.14,0,0,1-.36-.59c-.08-.23-.16-.34-.26-.33s-.18.1-.26.27a2.17,2.17,0,0,0-.17.69,2.93,2.93,0,0,0,.05.88,2.4,2.4,0,0,0,.37.88,2,2,0,0,0,.81.69,2.35,2.35,0,0,0,1.24.23,2.84,2.84,0,0,0,1.25-.41,4.24,4.24,0,0,0,1.15-1,6.9,6.9,0,0,0,1-1.56c.31-.69.63-1.43.95-2.23s.63-1.56.94-2.29.62-1.39.93-2A5.24,5.24,0,0,1,33.43,35Zm17,4.27a.35.35,0,0,0-.34,0,1.23,1.23,0,0,0-.43.36,5.91,5.91,0,0,1-.94,1,6.28,6.28,0,0,1-1.12.78,5.21,5.21,0,0,1-1.17.47,2.3,2.3,0,0,1-1.06.07,1.51,1.51,0,0,1-.61-.27,1,1,0,0,1-.37-.61,7,7,0,0,0,1.67-.48,5,5,0,0,0,1.41-.89,2.51,2.51,0,0,0,.65-.83,1.82,1.82,0,0,0,.19-.86,1.36,1.36,0,0,0-.27-.77,1.77,1.77,0,0,0-.75-.56A2.22,2.22,0,0,0,46,36.55a3.67,3.67,0,0,0-1.25.51,4.9,4.9,0,0,0-1.08,1,5.85,5.85,0,0,0-.79,1.19,2.26,2.26,0,0,0-.11.22,2.46,2.46,0,0,0-.17.22,5.19,5.19,0,0,1-.64.86,6.66,6.66,0,0,1-.8.71,4,4,0,0,1-.83.49,1.86,1.86,0,0,1-.75.18c-.16,0-.26,0-.3-.14a.54.54,0,0,1,0-.38,2.17,2.17,0,0,1,.2-.52,6.32,6.32,0,0,1,.33-.56,9.73,9.73,0,0,0,.78-1.42,3.47,3.47,0,0,0,.32-1.2,1.06,1.06,0,0,0-.26-.82,1.36,1.36,0,0,0-1-.3,2.58,2.58,0,0,0-1.11.27,6.18,6.18,0,0,0-1.13.73,5.88,5.88,0,0,1,1.05-1.3l1.23-1.16A10.77,10.77,0,0,0,40.74,34a2.24,2.24,0,0,0,.5-1.16,1.17,1.17,0,0,0-.15-.71.81.81,0,0,0-.5-.37,1.17,1.17,0,0,0-.76.09,2.38,2.38,0,0,0-.89.68,23.48,23.48,0,0,0-1.71,2.22c-.61.87-1.2,1.76-1.78,2.67S34.34,39.17,33.87,40s-.84,1.49-1.11,2a4.55,4.55,0,0,0-.35.82.63.63,0,0,0,0,.44.37.37,0,0,0,.29.18,2.62,2.62,0,0,0,.52,0l.65,0a.61.61,0,0,0,.37-.13.92.92,0,0,0,.27-.35l.34-.7.07-.19c.42-.75.82-1.39,1.17-1.91a10.25,10.25,0,0,1,1-1.27,4.26,4.26,0,0,1,.82-.7,1.38,1.38,0,0,1,.64-.24q.38,0,.33.27a2.06,2.06,0,0,1-.31.72q-.26.43-.63,1a7.14,7.14,0,0,0-.61,1,2.49,2.49,0,0,0-.33,1,1.42,1.42,0,0,0,.1.81,1.23,1.23,0,0,0,.5.56,1.7,1.7,0,0,0,.89.21,3.32,3.32,0,0,0,1.39-.33,7.26,7.26,0,0,0,1.37-.83,8.62,8.62,0,0,0,1.09-1,2.44,2.44,0,0,0,.22.91,2,2,0,0,0,.86.91,2.72,2.72,0,0,0,1.42.34,4.6,4.6,0,0,0,1.48-.25,6.14,6.14,0,0,0,1.47-.69,8.54,8.54,0,0,0,1.37-1.08A9.27,9.27,0,0,0,50.37,40a.87.87,0,0,0,.2-.49A.29.29,0,0,0,50.45,39.27Zm-5.8.38a3.87,3.87,0,0,1,.94-1.39,1.83,1.83,0,0,1,.91-.48A.49.49,0,0,1,47,38c.11.18.05.41-.17.7a2.72,2.72,0,0,1-1.12.92A5.42,5.42,0,0,1,44.5,40ZM129.52,26.2h-5.69V37.8l-5.64-11.6h-8.12V50.34h5.64V34l8.84,16.35h5Zm49.77,23.47a2.31,2.31,0,0,0,.83-1.82V26.19h-5.75V45.25h-8.12V26.19h-5.74V47.85a2.28,2.28,0,0,0,.83,1.82,3,3,0,0,0,2,.72h13.87A3,3,0,0,0,179.29,49.67ZM73.45,34.43v-3H62.2l3.12,2.22V45.26h8.13v-3h5.69V47.8a2.31,2.31,0,0,1-.83,1.82,3,3,0,0,1-2,.72H62.51a2.89,2.89,0,0,1-2-.72,2.34,2.34,0,0,1-.8-1.82v-19a2.45,2.45,0,0,1,.8-1.85,2.86,2.86,0,0,1,2-.74H76.26a3,3,0,0,1,2,.74,2.41,2.41,0,0,1,.83,1.85v5.64Zm30.88-5.69V47.8a2.31,2.31,0,0,1-.83,1.82,2.93,2.93,0,0,1-2,.72H87.7a2.93,2.93,0,0,1-2-.72,2.31,2.31,0,0,1-.83-1.82V28.74a2.35,2.35,0,0,1,.83-1.8,2.9,2.9,0,0,1,2-.74h13.81a2.9,2.9,0,0,1,2,.74A2.35,2.35,0,0,1,104.33,28.74Zm-5.69,2.6H87.4l3.17,2.26V45.2h8.07ZM150,53l-1.74-2.61h-10a2.91,2.91,0,0,1-2-.72,2.29,2.29,0,0,1-.83-1.82V28.74a2.32,2.32,0,0,1,.83-1.8,2.84,2.84,0,0,1,2-.75H152a2.85,2.85,0,0,1,2,.75,2.32,2.32,0,0,1,.83,1.8V47.8a2.28,2.28,0,0,1-.61,1.61L156.59,53ZM141.09,33.6V45.2h8.06V31.33H137.91Zm64.14-2.16H188.3l3.06,2.19v2.23h9v5.08h-9v4.37h13.87v5.08H185.78V26.25h19.45Zm27.6,18.88H226.2L220.67,42h-4.09v8.28H210.9V26.18h16.4a3,3,0,0,1,2,.75,2.32,2.32,0,0,1,.82,1.79V39.44a2.39,2.39,0,0,1-.82,1.85,3,3,0,0,1-2,.75Zm-8.35-19H213.41l3.17,2.26V36.9h7.9Zm31.06-2.6V47.78a2.33,2.33,0,0,1-.83,1.83,3,3,0,0,1-2,.71H238.91a3,3,0,0,1-2-.71,2.33,2.33,0,0,1-.83-1.83V28.72a2.33,2.33,0,0,1,.83-1.79,2.85,2.85,0,0,1,2-.75h13.81a2.88,2.88,0,0,1,2,.75A2.33,2.33,0,0,1,255.54,28.72Zm-5.69,2.6H238.61l3.17,2.26V45.19h8.07Zm33.36,19h-6.63L271.06,42H267v8.28h-5.69V26.18h16.41a2.92,2.92,0,0,1,2,.75,2.33,2.33,0,0,1,.83,1.79V39.44a2.4,2.4,0,0,1-.83,1.85,2.92,2.92,0,0,1-2,.75Zm-8.34-19H263.8L267,33.58V36.9h7.9Z"/><div xmlns="" id="divScriptsUsed" style="display: none"/><script xmlns="" id="globalVarsDetection" src="chrome-extension://cmkdbmfndkfgebldhnkbfhlneefdaaip/js/wrs_env.js"/></svg>